<mxfile host="app.diagrams.net" modified="2023-02-23T09:39:41.912Z" agent="5.0 (Windows NT 10.0; Win64; x64) AppleWebKit/537.36 (KHTML, like Gecko) Chrome/109.0.0.0 Safari/537.36" etag="Axm1W-VdnVDIdeiWxRE_" version="20.8.20" type="github">
  <diagram name="Page-1" id="VCG3KMmHnJHjyx4HyIuV">
    <mxGraphModel dx="934" dy="544" grid="1" gridSize="10" guides="1" tooltips="1" connect="1" arrows="1" fold="1" page="1" pageScale="1" pageWidth="1654" pageHeight="2336" background="none" math="0" shadow="0">
      <root>
        <mxCell id="0" />
        <mxCell id="1" parent="0" />
        <mxCell id="fU3kt85QOJrYf46DFNPR-22" value="" style="edgeStyle=orthogonalEdgeStyle;rounded=0;orthogonalLoop=1;jettySize=auto;html=1;entryX=0.5;entryY=0;entryDx=0;entryDy=0;" parent="1" source="fU3kt85QOJrYf46DFNPR-1" target="fU3kt85QOJrYf46DFNPR-2" edge="1">
          <mxGeometry relative="1" as="geometry">
            <mxPoint x="355" y="215" as="targetPoint" />
            <Array as="points">
              <mxPoint x="360" y="200" />
              <mxPoint x="245" y="200" />
            </Array>
          </mxGeometry>
        </mxCell>
        <mxCell id="fU3kt85QOJrYf46DFNPR-24" value="" style="edgeStyle=orthogonalEdgeStyle;rounded=0;orthogonalLoop=1;jettySize=auto;html=1;entryX=0.5;entryY=0;entryDx=0;entryDy=0;" parent="1" source="fU3kt85QOJrYf46DFNPR-1" target="fU3kt85QOJrYf46DFNPR-6" edge="1">
          <mxGeometry relative="1" as="geometry">
            <mxPoint x="480" y="115" as="targetPoint" />
            <Array as="points">
              <mxPoint x="360" y="200" />
              <mxPoint x="485" y="200" />
            </Array>
          </mxGeometry>
        </mxCell>
        <mxCell id="fU3kt85QOJrYf46DFNPR-1" value="EDK2 Source" style="rounded=0;whiteSpace=wrap;html=1;" parent="1" vertex="1">
          <mxGeometry x="310" y="100" width="100" height="50" as="geometry" />
        </mxCell>
        <mxCell id="fU3kt85QOJrYf46DFNPR-29" value="" style="edgeStyle=orthogonalEdgeStyle;rounded=0;orthogonalLoop=1;jettySize=auto;html=1;" parent="1" source="fU3kt85QOJrYf46DFNPR-2" target="fU3kt85QOJrYf46DFNPR-27" edge="1">
          <mxGeometry relative="1" as="geometry" />
        </mxCell>
        <mxCell id="fU3kt85QOJrYf46DFNPR-2" value="Scan the Edk2 Source" style="rounded=0;whiteSpace=wrap;html=1;" parent="1" vertex="1">
          <mxGeometry x="200" y="250" width="90" height="50" as="geometry" />
        </mxCell>
        <mxCell id="fU3kt85QOJrYf46DFNPR-36" style="edgeStyle=orthogonalEdgeStyle;rounded=0;orthogonalLoop=1;jettySize=auto;html=1;entryX=0.5;entryY=0;entryDx=0;entryDy=0;" parent="1" source="fU3kt85QOJrYf46DFNPR-4" target="fU3kt85QOJrYf46DFNPR-32" edge="1">
          <mxGeometry relative="1" as="geometry">
            <Array as="points">
              <mxPoint x="485" y="440" />
              <mxPoint x="360" y="440" />
            </Array>
          </mxGeometry>
        </mxCell>
        <mxCell id="fU3kt85QOJrYf46DFNPR-4" value="&lt;div style=&quot;text-align: justify;&quot;&gt;&lt;br&gt;&lt;/div&gt;&lt;div style=&quot;text-align: justify;&quot;&gt;1. OSS Name&lt;/div&gt;&lt;div style=&quot;text-align: justify;&quot;&gt;2. OSS Vendor&lt;/div&gt;&lt;div style=&quot;text-align: justify;&quot;&gt;3. OSS Path&lt;/div&gt;&lt;div style=&quot;text-align: left;&quot;&gt;4. OSS Source Url&lt;/div&gt;" style="whiteSpace=wrap;html=1;rounded=0;" parent="1" vertex="1">
          <mxGeometry x="420" y="320" width="130" height="80" as="geometry" />
        </mxCell>
        <mxCell id="fU3kt85QOJrYf46DFNPR-26" value="" style="edgeStyle=orthogonalEdgeStyle;rounded=0;orthogonalLoop=1;jettySize=auto;html=1;" parent="1" source="fU3kt85QOJrYf46DFNPR-6" target="fU3kt85QOJrYf46DFNPR-4" edge="1">
          <mxGeometry relative="1" as="geometry" />
        </mxCell>
        <mxCell id="fU3kt85QOJrYf46DFNPR-6" value="Scan readme.rst file to get the following" style="rounded=0;whiteSpace=wrap;html=1;" parent="1" vertex="1">
          <mxGeometry x="430" y="230" width="110" height="55" as="geometry" />
        </mxCell>
        <mxCell id="fU3kt85QOJrYf46DFNPR-35" style="edgeStyle=orthogonalEdgeStyle;rounded=0;orthogonalLoop=1;jettySize=auto;html=1;" parent="1" source="fU3kt85QOJrYf46DFNPR-27" target="fU3kt85QOJrYf46DFNPR-32" edge="1">
          <mxGeometry relative="1" as="geometry">
            <Array as="points">
              <mxPoint x="245" y="440" />
              <mxPoint x="360" y="440" />
            </Array>
          </mxGeometry>
        </mxCell>
        <mxCell id="fU3kt85QOJrYf46DFNPR-27" value="Get the EDK2 Version from the Source" style="rounded=0;whiteSpace=wrap;html=1;" parent="1" vertex="1">
          <mxGeometry x="197.5" y="345" width="95" height="55" as="geometry" />
        </mxCell>
        <mxCell id="fU3kt85QOJrYf46DFNPR-38" value="" style="edgeStyle=orthogonalEdgeStyle;rounded=0;orthogonalLoop=1;jettySize=auto;html=1;" parent="1" source="fU3kt85QOJrYf46DFNPR-32" target="fU3kt85QOJrYf46DFNPR-37" edge="1">
          <mxGeometry relative="1" as="geometry" />
        </mxCell>
        <mxCell id="fU3kt85QOJrYf46DFNPR-32" value="Get&amp;nbsp;OSS Commit ID using Git Api&#39;s" style="rounded=0;whiteSpace=wrap;html=1;" parent="1" vertex="1">
          <mxGeometry x="300" y="500" width="120" height="60" as="geometry" />
        </mxCell>
        <mxCell id="fU3kt85QOJrYf46DFNPR-40" value="" style="edgeStyle=orthogonalEdgeStyle;rounded=0;orthogonalLoop=1;jettySize=auto;html=1;" parent="1" source="fU3kt85QOJrYf46DFNPR-37" target="fU3kt85QOJrYf46DFNPR-39" edge="1">
          <mxGeometry relative="1" as="geometry" />
        </mxCell>
        <mxCell id="fU3kt85QOJrYf46DFNPR-37" value="Get the OSS Version using Commit ID and git Api&#39;s" style="rounded=0;whiteSpace=wrap;html=1;" parent="1" vertex="1">
          <mxGeometry x="300" y="610" width="120" height="60" as="geometry" />
        </mxCell>
        <mxCell id="fU3kt85QOJrYf46DFNPR-42" value="" style="edgeStyle=orthogonalEdgeStyle;rounded=0;orthogonalLoop=1;jettySize=auto;html=1;" parent="1" source="fU3kt85QOJrYf46DFNPR-39" target="fU3kt85QOJrYf46DFNPR-41" edge="1">
          <mxGeometry relative="1" as="geometry" />
        </mxCell>
        <mxCell id="fU3kt85QOJrYf46DFNPR-39" value="Generate CPE Pattern using OSS name, vendor and it&#39;s version" style="whiteSpace=wrap;html=1;rounded=0;" parent="1" vertex="1">
          <mxGeometry x="300" y="720" width="120" height="60" as="geometry" />
        </mxCell>
        <mxCell id="fU3kt85QOJrYf46DFNPR-44" value="" style="edgeStyle=orthogonalEdgeStyle;rounded=0;orthogonalLoop=1;jettySize=auto;html=1;" parent="1" source="fU3kt85QOJrYf46DFNPR-41" target="fU3kt85QOJrYf46DFNPR-43" edge="1">
          <mxGeometry relative="1" as="geometry" />
        </mxCell>
        <mxCell id="fU3kt85QOJrYf46DFNPR-41" value="NVD Scan" style="whiteSpace=wrap;html=1;rounded=0;" parent="1" vertex="1">
          <mxGeometry x="300" y="830" width="120" height="60" as="geometry" />
        </mxCell>
        <mxCell id="fU3kt85QOJrYf46DFNPR-43" value="List the CVE&#39;s and generate report" style="whiteSpace=wrap;html=1;rounded=0;" parent="1" vertex="1">
          <mxGeometry x="300" y="940" width="120" height="60" as="geometry" />
        </mxCell>
      </root>
    </mxGraphModel>
  </diagram>
</mxfile>
